<svg xmlns="http://www.w3.org/2000/svg" xmlns:xlink="http://www.w3.org/1999/xlink" style="margin: auto; display: block;" width="200px" height="200px" viewBox="0 0 100 100" preserveAspectRatio="xMidYMid">
<defs>
  <mask id="ldio-cx3p59j07hk-mask">
    <path d="M50 13L75 30L75 70L50 87L25 70L25 30L50 13Z" fill="#fff" stroke="#000" stroke-width="0"></path>
  </mask>
</defs>
<path d="M50 13L75 30L75 70L50 87L25 70L25 30L50 13Z" fill="#1d3f72" stroke="#71c2cc" stroke-width="0"></path><path d="M50 13L75 30L75 70L50 87L58.3 70L58.3 30Z" mask="url(#ldio-cx3p59j07hk-mask)" fill="#1d3f72" stroke="#71c2cc" stroke-width="0">
  <animate attributeName="d" dur="3.3333333333333335s" repeatCount="indefinite" keyTimes="0;1" values="M50 13L90 30L90 70L50 87L75 70L75 30Z;M50 13L25 30L25 70L50 87L10 70L10 30Z" begin="-0.6666666666666667s"></animate>
  <animate attributeName="fill" dur="3.3333333333333335s" repeatCount="indefinite" keyTimes="0;0.5;1" values="#1d3f72;#5699d2;#d8ebf9" begin="-0.6666666666666667s"></animate>
</path><path d="M50 13L75 30L75 70L50 87L58.3 70L58.3 30Z" mask="url(#ldio-cx3p59j07hk-mask)" fill="#1d3f72" stroke="#71c2cc" stroke-width="0">
  <animate attributeName="d" dur="3.3333333333333335s" repeatCount="indefinite" keyTimes="0;1" values="M50 13L90 30L90 70L50 87L75 70L75 30Z;M50 13L25 30L25 70L50 87L10 70L10 30Z" begin="-1.3333333333333335s"></animate>
  <animate attributeName="fill" dur="3.3333333333333335s" repeatCount="indefinite" keyTimes="0;0.5;1" values="#1d3f72;#5699d2;#d8ebf9" begin="-1.3333333333333335s"></animate>
</path><path d="M50 13L75 30L75 70L50 87L58.3 70L58.3 30Z" mask="url(#ldio-cx3p59j07hk-mask)" fill="#1d3f72" stroke="#71c2cc" stroke-width="0">
  <animate attributeName="d" dur="3.3333333333333335s" repeatCount="indefinite" keyTimes="0;1" values="M50 13L90 30L90 70L50 87L75 70L75 30Z;M50 13L25 30L25 70L50 87L10 70L10 30Z" begin="-2s"></animate>
  <animate attributeName="fill" dur="3.3333333333333335s" repeatCount="indefinite" keyTimes="0;0.5;1" values="#1d3f72;#5699d2;#d8ebf9" begin="-2s"></animate>
</path><path d="M50 13L75 30L75 70L50 87L58.3 70L58.3 30Z" mask="url(#ldio-cx3p59j07hk-mask)" fill="#1d3f72" stroke="#71c2cc" stroke-width="0">
  <animate attributeName="d" dur="3.3333333333333335s" repeatCount="indefinite" keyTimes="0;1" values="M50 13L90 30L90 70L50 87L75 70L75 30Z;M50 13L25 30L25 70L50 87L10 70L10 30Z" begin="-2.666666666666667s"></animate>
  <animate attributeName="fill" dur="3.3333333333333335s" repeatCount="indefinite" keyTimes="0;0.5;1" values="#1d3f72;#5699d2;#d8ebf9" begin="-2.666666666666667s"></animate>
</path><path d="M50 13L75 30L75 70L50 87L58.3 70L58.3 30Z" mask="url(#ldio-cx3p59j07hk-mask)" fill="#1d3f72" stroke="#71c2cc" stroke-width="0">
  <animate attributeName="d" dur="3.3333333333333335s" repeatCount="indefinite" keyTimes="0;1" values="M50 13L90 30L90 70L50 87L75 70L75 30Z;M50 13L25 30L25 70L50 87L10 70L10 30Z" begin="-3.3333333333333335s"></animate>
  <animate attributeName="fill" dur="3.3333333333333335s" repeatCount="indefinite" keyTimes="0;0.5;1" values="#1d3f72;#5699d2;#d8ebf9" begin="-3.3333333333333335s"></animate>
</path><path d="M25 30L75 30" fill="#1d3f72" stroke="#71c2cc" stroke-width="0"></path>
<path d="M25 70L75 70" fill="#1d3f72" stroke="#71c2cc" stroke-width="0"></path>
</svg>